<svg xmlns="http://www.w3.org/2000/svg" width="600" height="400" viewBox="0 0 600 400"><rect width="100%" height="100%" fill="#DDDDDD"/><path fill="#999999" d="M296.45 140.6q0 7.95-2.63 14.72-2.62 6.78-7.42 11.73t-11.55 7.72q-6.75 2.78-15 2.78-8.2 0-14.95-2.78-6.75-2.77-11.58-7.72-4.82-4.95-7.47-11.73-2.65-6.77-2.65-14.72t2.65-14.73q2.65-6.77 7.47-11.72 4.83-4.95 11.58-7.73 6.75-2.77 14.95-2.77 5.5 0 10.35 1.27 4.85 1.28 8.9 3.6 4.05 2.33 7.27 5.65 3.23 3.33 5.48 7.43t3.42 8.9q1.18 4.8 1.18 10.1m-13.75 0q0-5.95-1.6-10.68-1.6-4.72-4.55-8.02t-7.17-5.05q-4.23-1.75-9.53-1.75t-9.53 1.75q-4.22 1.75-7.2 5.05-2.97 3.3-4.57 8.02-1.6 4.73-1.6 10.68t1.6 10.67q1.6 4.73 4.57 8 2.98 3.28 7.2 5.03 4.23 1.75 9.53 1.75t9.53-1.75q4.22-1.75 7.17-5.03 2.95-3.27 4.55-8 1.6-4.72 1.6-10.67m23.8-38.15h12.35v74.3H306.5zm51.8 61.05v-8.65q-5.35.25-9 .92-3.65.68-5.85 1.73t-3.15 2.45-.95 3.05q0 3.25 1.93 4.65 1.92 1.4 5.02 1.4 3.8 0 6.58-1.38 2.77-1.37 5.42-4.17m-26.1-26.95-2.2-3.95q8.85-8.1 21.3-8.1 4.5 0 8.05 1.47 3.55 1.48 6 4.1 2.45 2.63 3.73 6.28 1.27 3.65 1.27 8v32.4h-5.6q-1.75 0-2.7-.53-.95-.52-1.5-2.12l-1.1-3.7q-1.95 1.75-3.8 3.07-1.85 1.33-3.85 2.23t-4.27 1.38q-2.28.47-5.03.47-3.25 0-6-.88-2.75-.87-4.75-2.62t-3.1-4.35-1.1-6.05q0-1.95.65-3.88.65-1.92 2.13-3.67 1.47-1.75 3.82-3.3t5.78-2.7q3.42-1.15 7.97-1.88 4.55-.72 10.4-.87v-3q0-5.15-2.2-7.63-2.2-2.47-6.35-2.47-3 0-4.97.7-1.98.7-3.48 1.57-1.5.88-2.72 1.58-1.23.7-2.73.7-1.3 0-2.2-.68-.9-.67-1.45-1.57m23.25-32.9h12L355.1 116.7q-.95 1-1.82 1.37-.88.38-2.28.38h-7.4l7.1-12.15q.75-1.3 1.75-1.97 1-.68 3-.68M213.2 224.45h10.15v72.3H211.5v-46.7q0-2.8.3-6.05l-21.85 41.05Q188.4 288 185.2 288h-1.9q-3.2 0-4.75-2.95l-22.1-41.2q.15 1.65.25 3.25t.1 2.95v46.7h-11.85v-72.3h10.15q.9 0 1.55.05t1.18.25q.52.2.94.65.43.45.83 1.2l21.65 40.15q.85 1.6 1.58 3.3.72 1.7 1.42 3.5.7-1.85 1.45-3.58.75-1.72 1.6-3.32l21.35-40.05q.4-.75.85-1.2t.98-.65q.52-.2 1.17-.25t1.55-.05m56.15 21h12.35v51.3h-7.55q-2.45 0-3.1-2.25l-.85-4.1q-3.15 3.2-6.95 5.18-3.8 1.97-8.95 1.97-4.2 0-7.42-1.42-3.23-1.43-5.43-4.03t-3.32-6.18q-1.13-3.57-1.13-7.87v-32.6h12.35v32.6q0 4.7 2.17 7.28 2.18 2.57 6.53 2.57 3.2 0 6-1.43 2.8-1.42 5.3-3.92zm35.25 2.25.85 4.05q1.55-1.55 3.28-2.87 1.72-1.33 3.65-2.25 1.92-.93 4.12-1.46 2.2-.52 4.8-.52 4.2 0 7.45 1.42 3.25 1.43 5.43 4 2.17 2.58 3.3 6.15 1.12 3.58 1.12 7.88v32.65h-12.35V264.1q0-4.7-2.15-7.28-2.15-2.57-6.55-2.57-3.2 0-6 1.45t-5.3 3.95v37.1H293.9v-51.3h7.55q2.4 0 3.15 2.25m77.9 33.85v-23q-2.1-2.55-4.57-3.6-2.48-1.05-5.33-1.05-2.8 0-5.05 1.05t-3.85 3.18q-1.6 2.12-2.45 5.4-.85 3.27-.85 7.72 0 4.5.73 7.63.72 3.12 2.07 5.09 1.35 1.98 3.3 2.86 1.95.87 4.35.87 3.85 0 6.55-1.6t5.1-4.55m0-59.1h12.35v74.3h-7.55q-2.45 0-3.1-2.25l-1.05-4.95q-3.1 3.55-7.12 5.75-4.03 2.2-9.38 2.2-4.2 0-7.7-1.75t-6.02-5.08q-2.53-3.32-3.9-8.22-1.38-4.9-1.38-11.2 0-5.7 1.55-10.6t4.45-8.5 6.95-5.62q4.05-2.03 9.1-2.03 4.3 0 7.35 1.35t5.45 3.65zm47.25 22.2q5.7 0 10.38 1.85 4.67 1.85 8 5.25 3.32 3.4 5.12 8.3t1.8 10.95q0 6.1-1.8 11t-5.12 8.35q-3.33 3.45-8 5.3-4.68 1.85-10.38 1.85-5.75 0-10.45-1.85t-8.02-5.3q-3.33-3.45-5.15-8.35-1.83-4.9-1.83-11 0-6.05 1.83-10.95 1.82-4.9 5.15-8.3 3.32-3.4 8.02-5.25t10.45-1.85m0 43.35q6.4 0 9.48-4.3 3.07-4.3 3.07-12.6t-3.07-12.65q-3.08-4.35-9.48-4.35-6.5 0-9.62 4.37-3.13 4.38-3.13 12.63t3.13 12.57q3.12 4.33 9.62 4.33"/></svg>