<svg xmlns="http://www.w3.org/2000/svg" width="600" height="400" viewBox="0 0 600 400"><rect width="100%" height="100%" fill="#EEE"/><path fill="#31343C" d="M134.95 222.295h-12.28v-63.19h27.94q4.36 0 8.06 1.82 3.69 1.83 6.36 4.81t4.18 6.76q1.52 3.79 1.52 7.61 0 6.14-3.07 11.17t-8.33 7.26l14.42 23.76h-13.79l-12.91-21.18h-12.1zm0-52.42v20.47h15.4q1.69 0 3.15-.8 1.47-.8 2.54-2.18t1.69-3.25q.63-1.87.63-4.01 0-2.22-.72-4.09-.71-1.87-1.91-3.25t-2.76-2.13q-1.56-.76-3.16-.76zm57.85 53.31q-3.38 0-6.32-1.11t-5.07-3.12q-2.14-2-3.34-4.67t-1.2-5.87q0-3.3 1.47-6.1 1.46-2.8 4.09-4.76t6.27-3.07q3.65-1.11 8.01-1.11 3.12 0 6.1.53t5.3 1.51v-2.67q0-4.63-2.63-7.12-2.62-2.49-7.79-2.49-3.73 0-7.29 1.34-3.56 1.33-7.3 3.91l-3.65-7.56q8.99-5.97 19.4-5.97 10.06 0 15.62 4.94t5.56 14.29v14.5q0 1.87.67 2.67.67.81 2.18.89v10.15q-3.03.62-5.25.62-3.38 0-5.21-1.51-1.82-1.51-2.27-4l-.26-2.59q-3.12 4.1-7.57 6.23-4.45 2.14-9.52 2.14m3.38-8.72q3.03 0 5.74-1.07 2.72-1.07 4.23-2.85 1.96-1.51 1.96-3.38v-5.34q-2.14-.8-4.63-1.29t-4.81-.49q-4.63 0-7.56 2.09-2.94 2.09-2.94 5.3 0 3.02 2.31 5.03 2.32 2 5.7 2m34.89-2.94v-54.2h11.92v50.02q0 2.58 1.25 4 1.25 1.43 3.56 1.43 1.07 0 2.36-.36 1.29-.35 2.45-.89l1.6 9.08q-2.4 1.16-5.61 1.78-3.2.62-5.78.62-5.61 0-8.68-2.98t-3.07-8.5m49.93 11.66q-5.61 0-10.15-1.91-4.54-1.92-7.74-5.21-3.21-3.29-4.94-7.65-1.74-4.36-1.74-9.17 0-4.99 1.69-9.39 1.7-4.41 4.9-7.74 3.2-3.34 7.79-5.3 4.58-1.96 10.28-1.96 5.69 0 10.19 1.96 4.49 1.96 7.65 5.25 3.16 3.3 4.81 7.66 1.64 4.36 1.64 9.07 0 1.16-.04 2.23-.05 1.07-.22 1.78h-36.05q.27 2.76 1.34 4.89 1.06 2.14 2.76 3.65 1.69 1.52 3.82 2.32 2.14.8 4.45.8 3.56 0 6.72-1.74 3.16-1.73 4.32-4.58l10.23 2.85q-2.58 5.34-8.23 8.76-5.65 3.43-13.48 3.43m-12.11-28.12h24.21q-.44-5.25-3.87-8.41t-8.32-3.16q-2.4 0-4.5.84-2.09.85-3.69 2.36t-2.63 3.65q-1.02 2.14-1.2 4.72m86.51 16.02 13.89-35.43h11.3l-19.49 46.64h-9.79l-8.01-20.47-7.92 20.47h-9.79l-19.41-46.64h11.22l13.88 35.43 5.7-15.13-8.19-20.21h9.61l4.9 14.33 4.98-14.33h9.61l-8.1 20.21zm42.28 12.1q-3.39 0-6.32-1.11-2.94-1.11-5.08-3.12-2.13-2-3.33-4.67t-1.2-5.87q0-3.3 1.46-6.1 1.47-2.8 4.1-4.76 2.62-1.96 6.27-3.07t8.01-1.11q3.12 0 6.1.53t5.29 1.51v-2.67q0-4.63-2.62-7.12-2.63-2.49-7.79-2.49-3.74 0-7.3 1.34-3.56 1.33-7.29 3.91l-3.65-7.56q8.99-5.97 19.4-5.97 10.06 0 15.62 4.94t5.56 14.29v14.5q0 1.87.67 2.67.67.81 2.18.89v10.15q-3.03.62-5.25.62-3.38 0-5.21-1.51-1.82-1.51-2.27-4l-.27-2.59q-3.11 4.1-7.56 6.23-4.45 2.14-9.52 2.14m3.38-8.72q3.02 0 5.74-1.07 2.71-1.07 4.23-2.85 1.95-1.51 1.95-3.38v-5.34q-2.13-.8-4.62-1.29-2.5-.49-4.81-.49-4.63 0-7.56 2.09-2.94 2.09-2.94 5.3 0 3.02 2.31 5.03 2.32 2 5.7 2m34.8 27.23v-10.32q1.51.44 2.93.67 1.43.22 2.41.22 1.15 0 2.13-.45.98-.44 1.78-1.55.8-1.12 1.61-3.08.8-1.95 1.69-4.89l-18.43-46.64h12.29l12.63 36.32 11.22-36.32h11.21l-19.58 55.9q-1.69 4.89-5.78 8.01-4.1 3.11-10.15 3.11-1.42 0-2.89-.22t-3.07-.76"/></svg>