<svg xmlns="http://www.w3.org/2000/svg" width="1200" height="400" viewBox="0 0 1200 400"><rect width="100%" height="100%" fill="#f5b7d2"/><path fill="#ffffff" d="M363.165 270.095h32.47l-59.78-133.7h-30.56l-59.6 133.7h31.71l11.84-28.65h62.08Zm-63.99-52.14 21.2-51.19 21.21 51.19Zm239.9-52.15c-15.47 0-28.84 6.31-37.05 16.81-7.26-11.27-19.49-16.81-33.81-16.81-13.18 0-24.64 4.59-32.28 13.37v-11.84h-28.46v102.76h29.8v-51.57c0-18.34 9.36-26.93 22.53-26.93 12.42 0 19.49 7.64 19.49 24.26v54.24h29.79v-51.57c0-18.34 9.36-26.93 22.73-26.93 12.03 0 19.48 7.64 19.48 24.26v54.24h29.8v-58.83c0-31.32-17.57-45.46-42.02-45.46m110.21 0c-16.43 0-33.05 4.4-44.32 12.42l10.7 20.82c7.45-5.92 18.72-9.55 29.61-9.55 16.04 0 23.68 7.45 23.68 20.24h-23.68c-31.33 0-44.13 12.61-44.13 30.75 0 17.77 14.33 31.14 38.4 31.14 15.08 0 25.78-4.97 31.32-14.33v12.8h27.89v-58.64c0-31.13-18.15-45.65-49.47-45.65m-2.3 85.76c-10.5 0-16.8-4.96-16.8-12.41 0-6.88 4.39-12.04 18.33-12.04h20.44v10.51c-3.44 9.36-12.03 13.94-21.97 13.94m107.16-70.67v-13.56h-28.46v102.76h29.79v-48.51c0-19.68 10.89-28.65 27.32-28.65 2.29 0 4.2.19 6.68.38v-27.51c-15.85 0-28.08 5.16-35.33 15.09m93.97-15.09c-16.43 0-33.04 4.4-44.31 12.42l10.69 20.82c7.45-5.92 18.72-9.55 29.61-9.55 16.04 0 23.68 7.45 23.68 20.24h-23.68c-31.33 0-44.12 12.61-44.12 30.75 0 17.77 14.32 31.14 38.39 31.14 15.09 0 25.78-4.97 31.32-14.33v12.8h27.89v-58.64c0-31.13-18.15-45.65-49.47-45.65m-2.29 85.76c-10.51 0-16.81-4.96-16.81-12.41 0-6.88 4.39-12.04 18.33-12.04h20.44v10.51c-3.44 9.36-12.03 13.94-21.96 13.94m78.69 18.53h29.79v-141.72h-29.79Z"/></svg>